<?xml version="1.0" encoding="UTF-8"?>
<svg
  version="1.1"
  xmlns="http://www.w3.org/2000/svg"
  width="380"
  height="200"
  viewBox="0 0 400 200"
>
<style>svg { background-color: #494949; }</style>
  <defs id="SvgjsDefs1001"></defs>
  <g
    id="SvgjsG1007"
    featurekey="symbolContainer"
    transform="matrix(1,0,0,1,20,20)"
    fill="#ffffff"
  >
    <rect
      xmlns="http://www.w3.org/2000/svg"
      width="110"
      height="134"
      rx="10"
      ry="10"
    ></rect>
  </g>
  <g
    id="SvgjsG1008"
    featurekey="monogramFeature-0"
    transform="matrix(2.2540653457450923,0,0,2.2540653457450923,31.7456155242147,-0.8098520528856668)"
    fill="#323232"
  >
    <path
      d="M34.717 18.104999999999997 l0 6.7383 l-22.295 28.418 l22.295 0 l0 6.7383 l-31.055 0 l0 -6.7383 l23.262 -28.418 l-22.676 0 l0 -6.7383 l30.469 0 z"
    ></path>
  </g>
  <g
    id="SvgjsG1009"
    featurekey="nameFeature-0"
    transform="matrix(0.5724098554485189,0,0,0.5724098554485189,149.47338288931596,56.84086982435972)"
    fill="#ffffff"
  >
    <path
      d="M24.6 11.440000000000001 l0 4.96 l-15.32 18.32 l15.72 0 l0 5.28 l-24.08 0 l0 -4.96 l15.32 -18.32 l-14.12 0 l0 -5.28 l22.48 0 z M41.480000000000004 10.760000000000002 c4.2132 0 7.6068 1.4 10.18 4.2 s3.86 6.4268 3.86 10.88 c0 4.3468 -1.2933 7.9068 -3.88 10.68 s-5.9732 4.16 -10.16 4.16 c-4.2132 0 -7.6068 -1.3867 -10.18 -4.16 s-3.86 -6.3332 -3.86 -10.68 c0 -4.4268 1.2933 -8.0468 3.88 -10.86 s5.9732 -4.22 10.16 -4.22 z M33.72 25.84 c0 2.88 0.67996 5.1932 2.04 6.94 s3.2667 2.62 5.72 2.62 c2.4 0 4.2932 -0.86 5.68 -2.58 s2.08 -4.0468 2.08 -6.98 c0 -3.0667 -0.68668 -5.4668 -2.06 -7.2 s-3.2866 -2.6 -5.74 -2.6 c-2.4 0 -4.2868 0.86668 -5.66 2.6 s-2.06 4.1332 -2.06 7.2 z M72.60000000000001 10.760000000000002 c4.2132 0 7.6068 1.4 10.18 4.2 s3.86 6.4268 3.86 10.88 c0 4.3468 -1.2933 7.9068 -3.88 10.68 s-5.9732 4.16 -10.16 4.16 c-4.2132 0 -7.6068 -1.3867 -10.18 -4.16 s-3.86 -6.3332 -3.86 -10.68 c0 -4.4268 1.2933 -8.0468 3.88 -10.86 s5.9732 -4.22 10.16 -4.22 z M64.84 25.84 c0 2.88 0.67996 5.1932 2.04 6.94 s3.2667 2.62 5.72 2.62 c2.4 0 4.2932 -0.86 5.68 -2.58 s2.08 -4.0468 2.08 -6.98 c0 -3.0667 -0.68668 -5.4668 -2.06 -7.2 s-3.2866 -2.6 -5.74 -2.6 c-2.4 0 -4.2868 0.86668 -5.66 2.6 s-2.06 4.1332 -2.06 7.2 z M99.76 11.440000000000001 l6.68 19.64 l0.08 0 l6.32 -19.64 l8.84 0 l0 28.56 l-5.88 0 l0 -20.24 l-0.08 0 l-7 20.24 l-4.84 0 l-7 -20.04 l-0.08 0 l0 20.04 l-5.88 0 l0 -28.56 l8.84 0 z M144.6 11.440000000000001 l0 28.56 l-6.28 0 l0 -28.56 l6.28 0 z M156.36 11.440000000000001 l11.92 19.16 l0.08 0 l0 -19.16 l5.88 0 l0 28.56 l-6.28 0 l-11.88 -19.12 l-0.08 0 l0 19.12 l-5.88 0 l0 -28.56 l6.24 0 z M197.16 11.440000000000001 l0 28.56 l-6.28 0 l0 -28.56 l6.28 0 z M223.84000000000003 11.440000000000001 l0 5.28 l-8.56 0 l0 23.28 l-6.28 0 l0 -23.28 l-8.56 0 l0 -5.28 l23.4 0 z M251.04000000000002 10.760000000000002 c3.3333 0 6.1332 0.94 8.4 2.82 s3.5734 4.3668 3.92 7.46 l-6.08 0 c-0.21332 -1.4133 -0.92 -2.6 -2.12 -3.56 s-2.5733 -1.44 -4.12 -1.44 c-2.4533 0 -4.36 0.88 -5.72 2.64 s-2.04 4.1468 -2.04 7.16 c0 2.9333 0.68668 5.26 2.06 6.98 s3.2733 2.58 5.7 2.58 c1.8133 0 3.28 -0.55332 4.4 -1.66 s1.8133 -2.6867 2.08 -4.74 l6.08 0 c-0.32 3.6267 -1.62 6.48 -3.9 8.56 s-5.1668 3.12 -8.66 3.12 c-4.1868 0 -7.5732 -1.38 -10.16 -4.14 s-3.88 -6.3268 -3.88 -10.7 c0 -4.4268 1.28 -8.0468 3.84 -10.86 s5.96 -4.22 10.2 -4.22 z M280.68 10.760000000000002 c4.2132 0 7.6068 1.4 10.18 4.2 s3.86 6.4268 3.86 10.88 c0 4.3468 -1.2933 7.9068 -3.88 10.68 s-5.9732 4.16 -10.16 4.16 c-4.2132 0 -7.6068 -1.3867 -10.18 -4.16 s-3.86 -6.3332 -3.86 -10.68 c0 -4.4268 1.2933 -8.0468 3.88 -10.86 s5.9732 -4.22 10.16 -4.22 z M272.92 25.84 c0 2.88 0.67996 5.1932 2.04 6.94 s3.2667 2.62 5.72 2.62 c2.4 0 4.2932 -0.86 5.68 -2.58 s2.08 -4.0468 2.08 -6.98 c0 -3.0667 -0.68668 -5.4668 -2.06 -7.2 s-3.2866 -2.6 -5.74 -2.6 c-2.4 0 -4.2868 0.86668 -5.66 2.6 s-2.06 4.1332 -2.06 7.2 z M311.24 11.440000000000001 c4.0532 0 7.24 1.2533 9.56 3.76 s3.48 5.96 3.48 10.36 c0 4.56 -1.1667 8.1068 -3.5 10.64 s-5.46 3.8 -9.38 3.8 l-12.4 0 l0 -28.56 l12.24 0 z M310.84000000000003 34.72 c2.2667 0 4.0268 -0.74668 5.28 -2.24 s1.88 -3.6133 1.88 -6.36 c0 -3.1467 -0.67332 -5.5 -2.02 -7.06 s-3.42 -2.34 -6.22 -2.34 l-4.48 0 l0 18 l5.56 0 z M350 11.440000000000001 l0 5.28 l-15.08 0 l0 6.12 l13.84 0 l0 4.88 l-13.84 0 l0 7 l15.4 0 l0 5.28 l-21.68 0 l0 -28.56 l21.36 0 z"
    ></path>
  </g>
  <g
    id="SvgjsG1010"
    featurekey="sloganFeature-0"
    transform="matrix(1.3748067002579427,0,0,1.3748067002579427,148.10276692408937,82.60353979527812)"
    fill="#ffffff"
  >
    <path
      d="M4.52 5.720000000000001 l0 14.28 l-3.14 0 l0 -14.28 l3.14 0 z M13.68 5.380000000000001 c2.1066 0 3.8034 0.7 5.09 2.1 s1.93 3.2134 1.93 5.44 c0 2.1734 -0.64666 3.9534 -1.94 5.34 s-2.9866 2.08 -5.08 2.08 c-2.1066 0 -3.8034 -0.69334 -5.09 -2.08 s-1.93 -3.1666 -1.93 -5.34 c0 -2.2134 0.64666 -4.0234 1.94 -5.43 s2.9866 -2.11 5.08 -2.11 z M9.8 12.92 c0 1.44 0.33998 2.5966 1.02 3.47 s1.6333 1.31 2.86 1.31 c1.2 0 2.1466 -0.43 2.84 -1.29 s1.04 -2.0234 1.04 -3.49 c0 -1.5333 -0.34334 -2.7334 -1.03 -3.6 s-1.6433 -1.3 -2.87 -1.3 c-1.2 0 -2.1434 0.43334 -2.83 1.3 s-1.03 2.0666 -1.03 3.6 z M27.76 5.380000000000001 c1.7467 0 3.1366 0.40002 4.17 1.2 s1.55 1.9333 1.55 3.4 l-3.04 0 c-0.04 -0.72 -0.28334 -1.26 -0.73 -1.62 s-1.1367 -0.54 -2.07 -0.54 c-0.65334 0 -1.18 0.14334 -1.58 0.43 s-0.6 0.68332 -0.6 1.19 c0 0.41334 0.12334 0.71334 0.37 0.9 s0.59666 0.35332 1.05 0.49998 s1.2467 0.36 2.38 0.64 c1.1867 0.29334 2.1 0.61334 2.74 0.96 s1.1267 0.79 1.46 1.33 s0.5 1.2033 0.5 1.99 c0 0.90666 -0.24 1.7133 -0.72 2.42 s-1.18 1.2433 -2.1 1.61 s-1.96 0.55 -3.12 0.55 c-1.7733 0 -3.23 -0.44334 -4.37 -1.33 s-1.71 -2.1034 -1.71 -3.65 l0 -0.1 l3.04 0 c0 0.84 0.28666 1.49 0.86 1.95 s1.3333 0.69 2.28 0.69 c0.84 0 1.5167 -0.15 2.03 -0.45 s0.77 -0.74334 0.77 -1.33 c0 -0.38666 -0.14 -0.71332 -0.42 -0.97998 s-0.65334 -0.48332 -1.12 -0.64998 s-1.2533 -0.37666 -2.36 -0.63 c-1.28 -0.32 -2.2134 -0.66 -2.8 -1.02 s-1.0333 -0.79666 -1.34 -1.31 s-0.46 -1.13 -0.46 -1.85 c0 -0.89334 0.25666 -1.6733 0.77 -2.34 s1.1833 -1.16 2.01 -1.48 s1.68 -0.48 2.56 -0.48 z M45.8 5.720000000000001 l3.34 9.82 l0.04 0 l3.16 -9.82 l4.42 0 l0 14.28 l-2.94 0 l0 -10.12 l-0.04 0 l-3.5 10.12 l-2.42 0 l-3.5 -10.02 l-0.04 0 l0 10.02 l-2.94 0 l0 -14.28 l4.42 0 z M65.92 5.380000000000001 c2.1066 0 3.8034 0.7 5.09 2.1 s1.93 3.2134 1.93 5.44 c0 2.1734 -0.64666 3.9534 -1.94 5.34 s-2.9866 2.08 -5.08 2.08 c-2.1066 0 -3.8034 -0.69334 -5.09 -2.08 s-1.93 -3.1666 -1.93 -5.34 c0 -2.2134 0.64666 -4.0234 1.94 -5.43 s2.9866 -2.11 5.08 -2.11 z M62.04 12.92 c0 1.44 0.33998 2.5966 1.02 3.47 s1.6333 1.31 2.86 1.31 c1.2 0 2.1466 -0.43 2.84 -1.29 s1.04 -2.0234 1.04 -3.49 c0 -1.5333 -0.34334 -2.7334 -1.03 -3.6 s-1.6433 -1.3 -2.87 -1.3 c-1.2 0 -2.1434 0.43334 -2.83 1.3 s-1.03 2.0666 -1.03 3.6 z M81.82000000000001 5.720000000000001 c3.0266 0 4.54 1.1733 4.54 3.52 c0 1.3467 -0.64666 2.3466 -1.94 3 c0.88 0.25334 1.5367 0.69668 1.97 1.33 s0.65 1.3967 0.65 2.29 c0 1.28 -0.46334 2.29 -1.39 3.03 s-2.1434 1.11 -3.65 1.11 l-6.92 0 l0 -14.28 l6.74 0 z M81.42 11.5 c1.2667 0 1.9 -0.56666 1.9 -1.7 c0 -1.0933 -0.70666 -1.64 -2.12 -1.64 l-2.98 0 l0 3.34 l3.2 0 z M81.60000000000001 17.56 c1.5333 0 2.3 -0.62666 2.3 -1.88 c0 -1.36 -0.74666 -2.04 -2.24 -2.04 l-3.44 0 l0 3.92 l3.38 0 z M92.3 5.720000000000001 l0 14.28 l-3.14 0 l0 -14.28 l3.14 0 z M98.2 5.720000000000001 l0 11.64 l6.96 0 l0 2.64 l-10.1 0 l0 -14.28 l3.14 0 z M117.60000000000001 5.720000000000001 l0 2.64 l-7.54 0 l0 3.06 l6.92 0 l0 2.44 l-6.92 0 l0 3.5 l7.7 0 l0 2.64 l-10.84 0 l0 -14.28 l10.68 0 z"
    ></path>
  </g>
</svg>
